<?xml version="1.0" encoding="UTF-8" standalone="no"?>
<!-- Created with Inkscape (http://www.inkscape.org/) -->

<svg
   width="169.33333mm"
   height="135.46667mm"
   viewBox="0 0 169.33333 135.46667"
   version="1.1"
   id="svg1"
   xml:space="preserve"
   inkscape:version="1.3 (0e150ed6c4, 2023-07-21)"
   sodipodi:docname="tag.svg"
   xmlns:inkscape="http://www.inkscape.org/namespaces/inkscape"
   xmlns:sodipodi="http://sodipodi.sourceforge.net/DTD/sodipodi-0.dtd"
   xmlns="http://www.w3.org/2000/svg"
   xmlns:svg="http://www.w3.org/2000/svg"><sodipodi:namedview
     id="namedview1"
     pagecolor="#ffffff"
     bordercolor="#000000"
     borderopacity="0.25"
     inkscape:showpageshadow="2"
     inkscape:pageopacity="0.0"
     inkscape:pagecheckerboard="0"
     inkscape:deskcolor="#d1d1d1"
     inkscape:document-units="mm"
     inkscape:zoom="0.73139029"
     inkscape:cx="324.0404"
     inkscape:cy="491.52963"
     inkscape:window-width="1920"
     inkscape:window-height="1017"
     inkscape:window-x="-8"
     inkscape:window-y="-8"
     inkscape:window-maximized="1"
     inkscape:current-layer="layer1" /><defs
     id="defs1" /><g
     inkscape:label="Calque 1"
     inkscape:groupmode="layer"
     id="layer1"
     transform="translate(-19.156721,-18.364107)"><path
       d="m 129.22339,26.814899 c 0,-2.696105 -2.09021,-8.450792 -8.44021,-8.450792 -3.69888,0 -7.10935,2.4003 -8.17298,6.133042 L 78.743533,143.03048 c -0.222355,0.77656 -0.328347,1.55893 -0.328347,2.3286 -0.229923,2.73024 2.124868,8.4717 8.474868,8.4717 3.683,0 7.072313,-2.42279 8.135938,-6.14363 L 128.89266,29.153815 c 0.22489,-0.785812 0.33073,-1.568979 0.33073,-2.338916 z M 65.723388,56.225982 c 0,-4.836583 -3.955521,-8.466667 -8.466667,-8.466667 -2.166408,0 -4.333875,0.826823 -5.984875,2.480734 L 21.638513,79.873382 c -1.654969,1.884892 -2.481792,4.054475 -2.481792,5.985933 0,1.931459 0.826823,4.577296 2.480469,6.217706 l 29.633333,29.633339 c 1.647031,1.66687 3.816615,2.24896 5.986198,2.24896 4.511146,0 8.466667,-3.63273 8.466667,-8.46667 0,-2.16641 -0.826823,-4.33388 -2.480469,-5.98752 L 39.595783,85.859315 63.244242,62.210857 c 1.658937,-1.434042 2.479146,-3.577167 2.479146,-5.984875 z M 188.49005,85.859315 c 0,-2.166408 -0.82682,-4.333875 -2.48047,-5.987521 L 156.37625,50.238461 c -1.64703,-1.420812 -3.81661,-2.479146 -5.9862,-2.479146 -4.51114,0 -8.46666,3.632729 -8.46666,8.466667 0,2.166408 0.82682,4.333875 2.48047,5.987521 l 23.64845,23.648458 -23.64845,23.648459 c -1.66027,1.88119 -2.48047,4.05077 -2.48047,5.98223 0,4.83658 3.95552,8.46667 8.46666,8.46667 2.16641,0 4.33388,-0.82682 5.98488,-2.48073 l 29.63333,-29.633339 c 1.66158,-1.40864 2.48179,-3.578227 2.48179,-5.985936 z"
       id="path1"
       style="fill:#ffffff;stroke-width:0.264583" /></g></svg>
